<?xml version="1.0" encoding="UTF-8" standalone="no"?>
<!-- Created with Inkscape (http://www.inkscape.org/) -->

<svg
   xmlns:dc="http://purl.org/dc/elements/1.1/"
   xmlns:cc="http://creativecommons.org/ns#"
   xmlns:rdf="http://www.w3.org/1999/02/22-rdf-syntax-ns#"
   xmlns:svg="http://www.w3.org/2000/svg"
   xmlns="http://www.w3.org/2000/svg"
   xmlns:sodipodi="http://sodipodi.sourceforge.net/DTD/sodipodi-0.dtd"
   xmlns:inkscape="http://www.inkscape.org/namespaces/inkscape"
   width="256"
   height="256"
   viewBox="0 0 67.733335 67.733332"
   version="1.1"
   id="svg8"
   inkscape:version="0.92.2 (5c3e80d, 2017-08-06)"
   sodipodi:docname="logo.svg"
   inkscape:export-filename="C:\Users\aseldawy\Dropbox\UCR\Research-projects\star\images\logo.png"
   inkscape:export-xdpi="96.000008"
   inkscape:export-ydpi="96.000008">
  <defs
     id="defs2" />
  <sodipodi:namedview
     id="base"
     pagecolor="#ffffff"
     bordercolor="#666666"
     borderopacity="1.0"
     inkscape:pageopacity="0.0"
     inkscape:pageshadow="2"
     inkscape:zoom="1.4"
     inkscape:cx="-4.8474974"
     inkscape:cy="148.41763"
     inkscape:document-units="mm"
     inkscape:current-layer="layer1"
     showgrid="false"
     inkscape:snap-global="false"
     fit-margin-top="0"
     fit-margin-left="0"
     fit-margin-right="0"
     fit-margin-bottom="0"
     inkscape:window-width="1366"
     inkscape:window-height="705"
     inkscape:window-x="-8"
     inkscape:window-y="-8"
     inkscape:window-maximized="1"
     units="px" />
  <metadata
     id="metadata5">
    <rdf:RDF>
      <cc:Work
         rdf:about="">
        <dc:format>image/svg+xml</dc:format>
        <dc:type
           rdf:resource="http://purl.org/dc/dcmitype/StillImage" />
        <dc:title />
      </cc:Work>
    </rdf:RDF>
  </metadata>
  <g
     inkscape:label="Layer 1"
     inkscape:groupmode="layer"
     id="layer1"
     transform="translate(-28.784828,-39.149757)">
    <g
       transform="matrix(0.35277777,0,0,-0.35277777,32.094061,79.472417)"
       inkscape:label="ink_ext_XXXXXX"
       id="g131">
      <g
         transform="scale(0.1)"
         id="g133">
        <path
           inkscape:connector-curvature="0"
           id="path135"
           style="fill:#fab20b;fill-opacity:1;fill-rule:nonzero;stroke:none"
           d="M 0,910.707 H 153.785 V 234.852 c 0,-65.719 26.043,-97.965 81.856,-97.965 55.8,0 81.843,32.246 81.843,97.965 V 910.707 H 471.27 V 241.063 C 471.27,87.2734 381.977,2.9375 235.641,2.9375 89.2969,2.9375 0,87.2734 0,241.063 v 669.644" />
        <path
           inkscape:connector-curvature="0"
           id="path137"
           style="fill:#fab20b;fill-opacity:1;fill-rule:nonzero;stroke:none"
           d="m 930.141,611.82 v 69.453 c 0,75.645 -34.727,107.891 -74.414,107.891 -62,0 -81.856,-32.246 -81.856,-99.211 V 236.102 c 0,-66.969 19.856,-99.215 81.856,-99.215 55.812,0 74.414,32.246 74.414,90.535 V 335.324 H 1083.93 V 232.383 C 1083.93,105.891 1009.52,2.9375 855.727,2.9375 694.508,2.9375 620.102,105.891 620.102,232.383 v 461.289 c 0,126.5 74.406,229.433 235.625,229.433 153.793,0 228.203,-111.609 228.203,-245.55 V 611.82 H 930.141" />
        <path
           inkscape:connector-curvature="0"
           id="path139"
           style="fill:#3067ba;fill-opacity:1;fill-rule:nonzero;stroke:none"
           d="M 1382.96,908.656 H 1226.51 V 0 h 156.05 v 372.512 m 217.73,39.047 c 52.82,23.886 109.44,83.027 109.44,229.023 0,193.828 -89.32,268.074 -264.24,268.074 h -57.4 l 25.2,-157.781 93.39,143.789 -57.35,-172.226 155.15,94.238 -126.41,-130.254 221.25,25.918 -211.02,-70.84 202.7,-72.012 -212.93,27.117 126.41,-130.32 -155.15,94.258 57.35,-172.234 -92.46,142.39 -26.06,-158.16 c 26.39,0.156 56.14,1.406 74.92,3.738 L 1573.85,0 h 158.54 l -132.1,411.559" />
      </g>
    </g>
    <text
       xml:space="preserve"
       style="font-style:normal;font-weight:normal;font-size:23.34859276px;line-height:125%;font-family:sans-serif;letter-spacing:0px;word-spacing:0px;fill:#fab20b;fill-opacity:1;stroke:none;stroke-width:2.18893051px;stroke-linecap:butt;stroke-linejoin:miter;stroke-opacity:1;"
       x="29.133234"
       y="98.794907"
       id="text152"><tspan
         sodipodi:role="line"
         id="tspan150"
         x="29.133234"
         y="98.794907"
         style="font-style:normal;font-variant:normal;font-weight:bold;font-stretch:normal;font-family:sans-serif;-inkscape-font-specification:'sans-serif Bold';stroke-width:2.18893051px;fill:#fab20b;fill-opacity:1;">ST  R</tspan></text>
    <path
       sodipodi:type="star"
       style="opacity:1;fill:#3067ba;fill-opacity:1;stroke:none;stroke-width:1.31373823;stroke-linecap:round;stroke-linejoin:miter;stroke-miterlimit:0;stroke-dasharray:none;stroke-dashoffset:0;stroke-opacity:1"
       id="path154"
       sodipodi:sides="5"
       sodipodi:cx="69.666789"
       sodipodi:cy="91.281715"
       sodipodi:r1="9.762208"
       sodipodi:r2="3.7262287"
       sodipodi:arg1="-1.5707963"
       sodipodi:arg2="-0.94247777"
       inkscape:flatsided="false"
       inkscape:rounded="0"
       inkscape:randomized="0"
       d="m 69.666786,81.519507 2.190223,6.747626 7.094189,-0.0021 -5.740558,4.168156 2.194228,6.746325 -5.738082,-4.171564 -5.738082,4.171563 2.194228,-6.746324 -5.740557,-4.168156 7.094189,0.0021 z"
       inkscape:transform-center-y="-0.93220648"
       inkscape:transform-center-x="2.6208146e-06" />
  </g>
</svg>
